<?xml version="1.0" encoding="UTF-8"?>
<svg xmlns="http://www.w3.org/2000/svg" xmlns:xlink="http://www.w3.org/1999/xlink" height="100px" width="100px" fill="#f38f19" version="1.1" x="0px" y="0px" viewBox="0 0 100 100" style="enable-background:new 0 0 100 100;" xml:space="preserve">
  <path d="M75.6308594,11.3642578c-7.1826172,0-13.0263672,5.84375-13.0263672,13.0263672s5.84375,13.0263672,13.0263672,13.0263672  s13.0263672-5.84375,13.0263672-13.0263672S82.8134766,11.3642578,75.6308594,11.3642578z M69.0535889,33.2196655  c0.1217041-2.8015137,1.9521484-5.2025146,4.6573486-6.0238647c0.3847656-0.1171875,0.6630859-0.4545898,0.7041016-0.8554688  s-0.1630859-0.7871094-0.5166016-0.9799805c-1.2724609-0.6928711-2.0634766-2.0214844-2.0634766-3.4682617  c0-2.1757812,1.7705078-3.9462891,3.9462891-3.9462891s3.9462891,1.7705078,3.9462891,3.9462891  c0,1.4897461-0.828125,2.8364258-2.1611328,3.5151367c-0.3603516,0.1826172-0.5742188,0.5639648-0.5439453,0.9663086  s0.2998047,0.7470703,0.6826172,0.8740234c2.6132202,0.8659058,4.3826294,3.244812,4.5032349,5.9719238  c-1.8388062,1.3735352-4.1109009,2.1975098-6.5774536,2.1975098C73.1644287,35.4169922,70.892395,34.5930786,69.0535889,33.2196655z   M83.9931641,31.5578613c-0.5335083-2.2904663-1.9731445-4.270813-4.0068359-5.4621582  C81.0869141,25,81.7275391,23.5014648,81.7275391,21.8920898c0-3.2788086-2.6679688-5.9462891-5.9462891-5.9462891  s-5.9462891,2.6674805-5.9462891,5.9462891c0,1.5454102,0.5986328,3.0009766,1.6298828,4.0893555  c-2.1408081,1.1749268-3.6505737,3.201355-4.1970825,5.5755615c-1.6557617-1.9293823-2.663269-4.4304199-2.663269-7.1663818  c0-6.0800781,4.9462891-11.0263672,11.0263672-11.0263672s11.0263672,4.9462891,11.0263672,11.0263672  C86.6572266,27.1270142,85.649353,29.6282959,83.9931641,31.5578613z"></path>
  <path d="M24.4121094,11.3642578c-7.1826172,0-13.0263672,5.84375-13.0263672,13.0263672s5.84375,13.0263672,13.0263672,13.0263672  s13.0263672-5.84375,13.0263672-13.0263672S31.5947266,11.3642578,24.4121094,11.3642578z M17.8339233,33.2189331  c0.1220703-2.8007812,1.9523315-5.2018433,4.6582642-6.0231323c0.3847656-0.1171875,0.6630859-0.4545898,0.7041016-0.8554688  s-0.1630859-0.7871094-0.5166016-0.9799805c-1.2724609-0.6928711-2.0634766-2.0214844-2.0634766-3.4682617  c0-2.1757812,1.7705078-3.9462891,3.9462891-3.9462891s3.9462891,1.7705078,3.9462891,3.9462891  c0,1.4892578-0.828125,2.8364258-2.1621094,3.5151367c-0.359375,0.1831055-0.5732422,0.5644531-0.5429688,0.9667969  s0.2998047,0.746582,0.6826172,0.8735352c2.6132202,0.8659058,4.3826294,3.244812,4.5032349,5.9719238  c-1.8388062,1.3735352-4.1109009,2.1975098-6.5774536,2.1975098C21.9452515,35.4169922,19.6728516,34.5927734,17.8339233,33.2189331  z M32.7744141,31.5578003c-0.5335083-2.2905884-1.9732666-4.2706909-4.0078125-5.4620972  c1.1015625-1.0961914,1.7421875-2.5947266,1.7421875-4.2036133c0-3.2788086-2.6679688-5.9462891-5.9462891-5.9462891  s-5.9462891,2.6674805-5.9462891,5.9462891c0,1.5454102,0.5986328,3.0009766,1.6289062,4.0893555  c-2.1397705,1.1748047-3.6499023,3.2009277-4.1967773,5.5747681c-1.6553345-1.9293213-2.6625977-4.4299927-2.6625977-7.1655884  c0-6.0800781,4.9462891-11.0263672,11.0263672-11.0263672s11.0263672,4.9462891,11.0263672,11.0263672  C35.4384766,27.1270142,34.430603,29.6282959,32.7744141,31.5578003z"></path>
  <path d="M75.6308594,88.7412109c7.1826172,0,13.0263672-5.84375,13.0263672-13.0263672s-5.84375-13.0263672-13.0263672-13.0263672  s-13.0263672,5.84375-13.0263672,13.0263672S68.4482422,88.7412109,75.6308594,88.7412109z M69.0535889,84.5438843  c0.1217041-2.8015137,1.9521484-5.2025146,4.6573486-6.0238647c0.3847656-0.1171875,0.6630859-0.4545898,0.7041016-0.8554688  s-0.1630859-0.7871094-0.5166016-0.9799805c-1.2724609-0.6928711-2.0634766-2.0214844-2.0634766-3.4682617  c0-2.1757812,1.7705078-3.9462891,3.9462891-3.9462891s3.9462891,1.7705078,3.9462891,3.9462891  c0,1.4897461-0.828125,2.8364258-2.1611328,3.5151367c-0.3603516,0.1826172-0.5742188,0.5639648-0.5439453,0.9663086  s0.2998047,0.7470703,0.6826172,0.8740234c2.6132202,0.8659058,4.3826294,3.244812,4.5032349,5.9719238  c-1.8388062,1.3735352-4.1109009,2.1975098-6.5774536,2.1975098C73.1644287,86.7412109,70.892395,85.9172974,69.0535889,84.5438843z   M75.6308594,64.6884766c6.0800781,0,11.0263672,4.9462891,11.0263672,11.0263672  c0,2.7363892-1.0078735,5.2376709-2.6640625,7.1672363c-0.5335083-2.2904663-1.9731445-4.270813-4.0068359-5.4621582  c1.1005859-1.0957031,1.7412109-2.5942383,1.7412109-4.2036133c0-3.2788086-2.6679688-5.9462891-5.9462891-5.9462891  s-5.9462891,2.6674805-5.9462891,5.9462891c0,1.5454102,0.5986328,3.0009766,1.6298828,4.0893555  c-2.1408081,1.1749268-3.6505737,3.201355-4.1970825,5.5755615c-1.6557617-1.9293823-2.663269-4.4304199-2.663269-7.1663818  C64.6044922,69.6347656,69.5507812,64.6884766,75.6308594,64.6884766z"></path>
  <path d="M24.4121094,88.7412109c7.1826172,0,13.0263672-5.84375,13.0263672-13.0263672s-5.84375-13.0263672-13.0263672-13.0263672  s-13.0263672,5.84375-13.0263672,13.0263672S17.2294922,88.7412109,24.4121094,88.7412109z M17.8339233,84.5431519  c0.1220703-2.8007812,1.9523315-5.2018433,4.6582642-6.0231323c0.3847656-0.1171875,0.6630859-0.4545898,0.7041016-0.8554688  s-0.1630859-0.7871094-0.5166016-0.9799805c-1.2724609-0.6928711-2.0634766-2.0214844-2.0634766-3.4682617  c0-2.1757812,1.7705078-3.9462891,3.9462891-3.9462891s3.9462891,1.7705078,3.9462891,3.9462891  c0,1.4892578-0.828125,2.8364258-2.1621094,3.5151367c-0.359375,0.1831055-0.5732422,0.5644531-0.5429688,0.9667969  s0.2998047,0.746582,0.6826172,0.8735352c2.6132202,0.8659058,4.3826294,3.244812,4.5032349,5.9719238  c-1.8388062,1.3735352-4.1109009,2.1975098-6.5774536,2.1975098C21.9452515,86.7412109,19.6728516,85.9169922,17.8339233,84.5431519  z M24.4121094,64.6884766c6.0800781,0,11.0263672,4.9462891,11.0263672,11.0263672  c0,2.7363892-1.0078735,5.2376709-2.6640625,7.1671753c-0.5335083-2.2905884-1.9732666-4.2706909-4.0078125-5.4620972  c1.1015625-1.0961914,1.7421875-2.5947266,1.7421875-4.2036133c0-3.2788086-2.6679688-5.9462891-5.9462891-5.9462891  s-5.9462891,2.6674805-5.9462891,5.9462891c0,1.5454102,0.5986328,3.0009766,1.6289062,4.0893555  c-2.1397705,1.1748047-3.6499023,3.2009277-4.1967773,5.5747681c-1.6553345-1.9293213-2.6625977-4.4299927-2.6625977-7.1655884  C13.3857422,69.6347656,18.3320312,64.6884766,24.4121094,64.6884766z"></path>
  <path d="M62.1855469,12.831543C58.3769531,10.9526367,54.2841797,10,50.0214844,10s-8.3554688,0.9526367-12.1640625,2.831543  c-0.4951172,0.2446289-0.6992188,0.8442383-0.4541016,1.3393555c0.2441406,0.4956055,0.8417969,0.6987305,1.3388672,0.4545898  C42.2734375,12.8833008,46.0683594,12,50.0214844,12s7.7480469,0.8833008,11.2792969,2.6254883  c0.1425781,0.0698242,0.2929688,0.1030273,0.4414062,0.1030273c0.3691406,0,0.7236328-0.2045898,0.8974609-0.5576172  C62.8847656,13.6757812,62.6806641,13.0761719,62.1855469,12.831543z"></path>
  <path d="M12.8535156,62.1640625c0.1738281,0.3530273,0.5283203,0.5576172,0.8974609,0.5576172  c0.1484375,0,0.2988281-0.0332031,0.4414062-0.1030273c0.4951172-0.2446289,0.6992188-0.8442383,0.4541016-1.3393555  c-1.7421875-3.5307617-2.625-7.3256836-2.625-11.2792969s0.8828125-7.7485352,2.625-11.2792969  c0.2451172-0.4951172,0.0410156-1.0947266-0.4541016-1.3393555c-0.4960938-0.2421875-1.0947266-0.0400391-1.3388672,0.4545898  C10.9746094,41.6445312,10.0214844,45.7368164,10.0214844,50S10.9746094,58.3554688,12.8535156,62.1640625z"></path>
  <path d="M37.8574219,87.168457C41.6660156,89.0473633,45.7587891,90,50.0214844,90s8.3554688-0.9526367,12.1640625-2.831543  c0.4951172-0.2446289,0.6992188-0.8442383,0.4541016-1.3393555c-0.2431641-0.4951172-0.8417969-0.6972656-1.3388672-0.4545898  C57.7695312,87.1166992,53.9746094,88,50.0214844,88s-7.7480469-0.8833008-11.2792969-2.6254883  c-0.4970703-0.2416992-1.0947266-0.0400391-1.3388672,0.4545898C37.1582031,86.3242188,37.3623047,86.9238281,37.8574219,87.168457z  "></path>
  <path d="M85.8505859,37.3813477c-0.4951172,0.2446289-0.6992188,0.8442383-0.4541016,1.3393555  c1.7421875,3.5307617,2.625,7.3256836,2.625,11.2792969s-0.8828125,7.7485352-2.625,11.2792969  c-0.2451172,0.4951172-0.0410156,1.0947266,0.4541016,1.3393555c0.1425781,0.0698242,0.2929688,0.1030273,0.4414062,0.1030273  c0.3691406,0,0.7236328-0.2045898,0.8974609-0.5576172C89.0683594,58.3554688,90.0214844,54.2631836,90.0214844,50  s-0.953125-8.3554688-2.8320312-12.1640625C86.9453125,37.3413086,86.3486328,37.1386719,85.8505859,37.3813477z"></path>
  <path d="M57.1802979,33.4611816C54.9779053,32.5011597,52.5519409,31.9614258,50,31.9614258  c-9.9462891,0-18.0380859,8.0922852-18.0380859,18.0385742c0,2.5338745,0.5303955,4.944458,1.4776001,7.1345215  c0.0158081,0.046814,0.0404663,0.0866699,0.0628052,0.130188C36.3035889,63.600647,42.638916,68.0385742,50,68.0385742  c0.2910156,0,0.5745239-0.0300293,0.8622437-0.0437012c0.0470581,0.0066528,0.0942383,0.0134277,0.140686,0.0134277  c0.0570679,0,0.109375-0.0194092,0.1644287-0.0288696c6.0866089-0.3925781,11.3494263-3.8076782,14.3121338-8.7661743  c0.0949707-0.1009521,0.1653442-0.2194214,0.2114868-0.3478394C67.1779175,56.2440796,68.0380859,53.2228394,68.0380859,50  c0-2.0130005-0.3458252-3.9432373-0.9569702-5.7526245c-0.0177002-0.0476074-0.0204468-0.0976562-0.0459595-0.1433716  c-0.0029907-0.0053711-0.0084229-0.0081177-0.0115356-0.0134277c-1.6425781-4.71698-5.180603-8.5455322-9.7089233-10.5645142  C57.2696533,33.5030518,57.2282715,33.4771729,57.1802979,33.4611816z M44.7149658,34.8747559  c0.8428955,0.7181396,2.2058105,2.1289062,2.4119873,3.4963379c0.0878906,0.5849609-0.0488281,1.1103516-0.4169922,1.6069336  c-2.4521484,3.3046875-2.9931641,4.3286133-3.1503906,7.6689453c-0.1781006,3.8216553-1.3746338,8.1542969-8.4900513,8.1681519  c-0.7058105-1.805603-1.107605-3.7625122-1.107605-5.8151245C33.9619141,43.0099487,38.4639893,37.0661621,44.7149658,34.8747559z   M52.0769043,65.8883667c-0.059082-2.2523193-1.1113281-4.5430298-1.1374512-4.59198  c-0.0175781-0.0473633-1.7021484-4.7680664,0.4121094-7.4658203c2.0351562-2.5981445,4.5732422-1.8730469,4.671875-1.8432617  c0.0517578,0.0166016,0.1103516,0.0297852,0.1640625,0.0375977c0.192749,0.0280151,4.6273804,0.7548828,7.4143066,6.432373  C61.1154785,62.4415283,56.9396362,65.2553101,52.0769043,65.8883667z M64.7278442,56.3364258  c-3.1077881-5.2226562-7.5054321-6.1658325-8.1848755-6.2802734c-0.6083984-0.1655273-4.0625-0.9111328-6.765625,2.5410156  c-2.8046875,3.5786133-0.8027344,9.1523438-0.6835938,9.4658203c0.3070068,0.6583252,0.9736938,2.4562988,0.9837646,3.9716797  C50.0513916,66.03479,50.0261841,66.0385742,50,66.0385742c-6.0142822,0-11.2592773-3.3317871-14.0039062-8.2424927  c6.0456543-0.3198242,9.2645264-3.6920776,9.5615234-10.0558472c0.1337891-2.8579102,0.4716797-3.4887695,2.7578125-6.5698242  c0.6943359-0.9345703,0.9589844-1.9785156,0.7880859-3.1035156c-0.2296753-1.5117798-1.2415161-2.8682251-2.1375122-3.8087769  c0.9835205-0.18927,1.9960327-0.2966919,3.0339966-0.2966919c1.5748901,0,3.0936279,0.2376099,4.5325928,0.6625977  c-1.7279663,1.2276611-3.828064,3.392395-2.7200928,6.2182617c1.0498047,2.6801758,2.6962891,2.8647461,4.0185547,3.0131836  c0.7841797,0.0878906,1.4033203,0.1572266,2.0009766,0.7021484c1.5390625,1.4042969,3.2783203,1.9287109,4.90625,1.9287109  c0.989502,0,1.9292603-0.2042236,2.7678833-0.5120239C65.8412476,47.2633667,66.0380859,48.6075439,66.0380859,50  C66.0380859,52.2501221,65.5679932,54.3911133,64.7278442,56.3364258z M64.8911133,44.0774536  c-1.239563,0.47229-3.5820312,0.9450073-5.7114258-0.9973755c-1.0771484-0.9824219-2.2128906-1.1098633-3.1259766-1.2124023  c-1.140625-0.1279297-1.7695312-0.1982422-2.3798828-1.7548828c-0.850708-2.1723633,2.0745239-3.9876099,3.1898804-4.5866089  C60.503418,37.2595825,63.3890381,40.3143311,64.8911133,44.0774536z"></path>
</svg>
