<?xml version="1.0" encoding="UTF-8"?>
<svg xmlns="http://www.w3.org/2000/svg" xmlns:xlink="http://www.w3.org/1999/xlink" height="100px" width="100px" fill="#f38f19" version="1.1" x="0px" y="0px" viewBox="0 0 100 100" style="enable-background:new 0 0 100 100;" xml:space="preserve">
  <path d="M49.9267578,42.0957031c-6.7275391,0-12.2001953,5.4638672-12.2001953,12.1796875  c0,6.7167969,5.4726562,12.1806641,12.2001953,12.1806641s12.2011719-5.4638672,12.2011719-12.1806641  C62.1279297,47.5595703,56.6542969,42.0957031,49.9267578,42.0957031z M49.9267578,64.4560547  c-5.6240234,0-10.2001953-4.5673828-10.2001953-10.1806641s4.5761719-10.1796875,10.2001953-10.1796875  c5.625,0,10.2011719,4.5664062,10.2011719,10.1796875S55.5517578,64.4560547,49.9267578,64.4560547z"></path>
  <path d="M89.78125,54.8984375c0.2900391-0.3642578,0.2900391-0.8818359,0-1.2460938  c-0.1816406-0.2275391-4.5205078-5.6386719-11.5917969-11.1298828  c-6.3199463-4.9092407-16.0335083-10.7094116-26.9328613-11.1327515c-0.3331299-0.019043-0.6685791-0.0281982-1.0053101-0.0328369  C50.1670532,31.3562012,50.0843506,31.3486328,50,31.3486328c-0.0107422,0-0.0212402,0.0010376-0.0319824,0.0010376  c-0.013855,0-0.0274048-0.0010376-0.0412598-0.0010376c-0.4839478,0-0.9631348,0.0199585-1.4397583,0.0494385  c-10.7962646,0.503418-20.4069824,6.2536011-26.6774292,11.1243896  c-7.0712891,5.4912109-11.4101562,10.9023438-11.5917969,11.1298828c-0.2900391,0.3642578-0.2900391,0.8818359,0,1.2460938  c0.1816406,0.2275391,4.5205078,5.6386719,11.5917969,11.1308594c5.5742798,4.3300171,13.7902832,9.3518066,23.1296997,10.7703857  c1.6071777,0.3555908,3.2747192,0.5489502,4.9874878,0.5489502c1.602478,0,3.1668701-0.1650391,4.6779785-0.477356  c9.5278931-1.3206787,17.9196777-6.4414673,23.5847168-10.84198C85.2607422,60.5371094,89.5996094,55.1259766,89.78125,54.8984375z   M54.2248535,74.9050293C52.8354492,75.092041,51.4274902,75.203125,50,75.203125  c-1.5483398,0-3.0722046-0.1307983-4.5710449-0.3495483c-9.4456177-2.0631714-16.5422363-10.4676514-16.5422363-20.5049438  c0-11.5471802,9.3876953-20.9435425,20.9453735-20.9952393c0.0405273-0.0002441,0.0805664-0.0033569,0.1210938-0.003418  c11.590332,0.0145264,21.0145874,9.4284668,21.0145874,20.9986572  C70.9677734,64.4577637,63.7723999,72.9189453,54.2248535,74.9050293z M23.0742188,64.4785156  c-5.5253906-4.2861328-9.4208984-8.6220703-10.7714844-10.2021484c2.1828003-2.5461426,11.0142212-12.2651367,22.798584-17.5149536  c-5.0183716,4.2223511-8.2145996,10.5377808-8.2145996,17.5872192c0,6.8829346,3.0483398,13.0647583,7.8632812,17.2833252  C30.1990356,69.5681763,26.2061157,66.9082031,23.0742188,64.4785156z M72.9677734,54.3486328  c0-7.1123047-3.2514648-13.4797363-8.3474121-17.7019043c4.8106689,2.098938,9.0302734,4.8856812,12.3054199,7.4255371  c5.5244141,4.2861328,9.4199219,8.6220703,10.7705078,10.2021484c-2.1799316,2.5428467-10.9909668,12.2411499-22.7520752,17.4960327  C69.8518066,67.5493774,72.9677734,61.3074951,72.9677734,54.3486328z"></path>
  <path d="M10.25,41.6582031c0.1972656,0.2246094,0.4736328,0.3388672,0.75,0.3388672c0.2353516,0,0.4716797-0.0820312,0.6611328-0.25  C20.5068359,33.9482422,34.3378906,24.6513672,50,24.6513672c15.6572266,0,29.4912109,9.296875,38.3388672,17.0957031  c0.4140625,0.3662109,1.0458984,0.328125,1.4111328-0.0888672c0.3652344-0.4140625,0.3251953-1.0458984-0.0888672-1.4111328  C80.5546875,32.2197266,66.2822266,22.6513672,50,22.6513672c-16.2861328,0-30.5576172,9.5683594-39.6611328,17.5957031  C9.9248047,40.6123047,9.8847656,41.2441406,10.25,41.6582031z"></path>
</svg>
