<?xml version="1.0" encoding="UTF-8"?>
<svg xmlns="http://www.w3.org/2000/svg" xmlns:xlink="http://www.w3.org/1999/xlink" height="100px" width="100px" fill="#FF9C34" version="1.1" x="0px" y="0px" viewBox="0 0 100 100" style="enable-background:new 0 0 100 100;" xml:space="preserve">
  <path d="M26.9589844,49.8999023c0.0029297-0.5522461-0.4423828-1.0024414-0.9941406-1.0053711c-0.0019531,0-0.0039062,0-0.0058594,0  c-0.5498047,0-0.9970703,0.4443359-1,0.9946289c-0.0576172,10.6835938,6.6777344,20.2490234,16.7607422,23.8027344  c0.109375,0.0385742,0.2216797,0.0571289,0.3320312,0.0571289c0.4121094,0,0.7978516-0.2573242,0.9433594-0.6679688  c0.1835938-0.5209961-0.0898438-1.0922852-0.6113281-1.2758789C33.1044922,68.5351562,26.90625,59.7319336,26.9589844,49.8999023z"></path>
  <path d="M63.8623047,70.777832c0.1972656,0,0.3964844-0.0581055,0.5712891-0.1796875  c4.3242188-3.0166016,7.5390625-7.246582,9.2958984-12.2333984c2.2285156-6.3222656,1.8613281-13.1333008-1.0341797-19.1791992  c-2.8945312-6.0458984-7.9707031-10.6025391-14.2929688-12.8310547c-0.5185547-0.1816406-1.0908203,0.090332-1.2753906,0.6108398  c-0.1835938,0.5209961,0.0898438,1.0922852,0.6113281,1.2758789c5.8183594,2.050293,10.4892578,6.2436523,13.1533203,11.8081055  c2.6640625,5.5639648,3.0019531,11.8325195,0.9511719,17.6503906c-1.6171875,4.5898438-4.5742188,8.4829102-8.5537109,11.2578125  c-0.453125,0.315918-0.5634766,0.9394531-0.2480469,1.3925781C63.2353516,70.628418,63.5458984,70.777832,63.8623047,70.777832z"></path>
  <path d="M20.9619141,38.7075195c-0.5166016-0.1831055-1.0908203,0.090332-1.2753906,0.6108398  c-2.8544922,8.1000977-2.3837891,16.8266602,1.3251953,24.5722656c3.7089844,7.7460938,10.2119141,13.5839844,18.3125,16.4389648  c3.4746094,1.2246094,7.0878906,1.8349609,10.6943359,1.8349609c4.3115234,0,8.6132812-0.8720703,12.6601562-2.6074219  c0.5068359-0.2177734,0.7421875-0.8056641,0.5244141-1.3129883c-0.2177734-0.5083008-0.8066406-0.7436523-1.3134766-0.5249023  c-6.9677734,2.9882812-14.7451172,3.2460938-21.9013672,0.7236328c-7.5957031-2.6767578-13.6943359-8.1518555-17.1728516-15.4155273  c-3.4785156-7.2641602-3.9199219-15.4482422-1.2421875-23.0439453  C21.7568359,39.4624023,21.4833984,38.8911133,20.9619141,38.7075195z"></path>
  <path d="M60.6972656,19.6811523c-7.8300781-2.7597656-16.3115234-2.4033203-23.8779297,1.0024414  c-0.5039062,0.2270508-0.7285156,0.8188477-0.5019531,1.3227539c0.2265625,0.5024414,0.8183594,0.7270508,1.3222656,0.5014648  c7.0976562-3.1938477,15.0498047-3.5283203,22.3935547-0.9399414c7.5957031,2.6767578,13.6943359,8.1518555,17.1728516,15.4155273  c3.4785156,7.2641602,3.9199219,15.4482422,1.2421875,23.0439453c-0.1835938,0.5209961,0.0898438,1.0922852,0.6113281,1.2758789  c0.109375,0.0385742,0.2216797,0.0571289,0.3320312,0.0571289c0.4121094,0,0.7978516-0.2573242,0.9433594-0.6679688  c2.8544922-8.1000977,2.3837891-16.8266602-1.3251953-24.5722656  C75.3007812,28.3740234,68.7978516,22.5361328,60.6972656,19.6811523z"></path>
  <path d="M63.3056641,12.2797852c-6.0234375-2.1225586-12.2646484-2.7739258-18.5537109-1.9355469  c-11.4335938,1.5253906-21.6474609,7.8867188-28.0214844,17.453125c-0.3066406,0.4599609-0.1816406,1.0805664,0.2773438,1.3867188  c0.4599609,0.3066406,1.0800781,0.1811523,1.3867188-0.2773438c6.0556641-9.0878906,15.7587891-15.1308594,26.6210938-16.5800781  c5.9716797-0.7983398,11.9013672-0.1777344,17.6259766,1.8398438c17.6298828,6.2128906,28.0595703,24.059082,24.7988281,42.4335938  C87.34375,57.144043,87.7060547,57.6630859,88.25,57.7592773c0.0595703,0.0107422,0.1181641,0.015625,0.1757812,0.015625  c0.4755859,0,0.8974609-0.3408203,0.9833984-0.8251953C92.8417969,37.6064453,81.8642578,18.8203125,63.3056641,12.2797852z"></path>
  <path d="M87.125,62.0253906c-0.5166016-0.1821289-1.0908203,0.090332-1.2753906,0.6108398  c-1.6328125,4.6333008-4.0927734,8.8349609-7.3125,12.4887695c-0.3652344,0.4145508-0.3251953,1.0463867,0.0888672,1.4116211  c0.1904297,0.1674805,0.4257812,0.2495117,0.6611328,0.2495117c0.2763672,0,0.5527344-0.1147461,0.75-0.3388672  c3.390625-3.847168,5.9804688-8.2700195,7.6992188-13.1459961C87.9199219,62.7802734,87.6464844,62.2089844,87.125,62.0253906z"></path>
  <path d="M37.3789062,85.8442383c-2.7578125-0.9716797-5.3955078-2.2548828-7.8388672-3.8139648  c-0.4658203-0.2958984-1.0849609-0.1591797-1.3808594,0.3056641c-0.296875,0.465332-0.1601562,1.0834961,0.3046875,1.3808594  c2.5732422,1.6411133,5.3486328,2.9916992,8.2509766,4.0141602c4.3847656,1.5449219,8.8974609,2.3076172,13.375,2.3076172  c7.7773438,0,15.4521484-2.2998047,22.1728516-6.7915039c0.4589844-0.3071289,0.5830078-0.9282227,0.2753906-1.387207  c-0.3066406-0.4584961-0.9267578-0.5830078-1.3867188-0.2758789C61.0888672,88.309082,48.7792969,89.8632812,37.3789062,85.8442383z  "></path>
  <path d="M13.5605469,36.0986328c-0.5175781-0.1816406-1.0908203,0.090332-1.2753906,0.6108398  c-4.5214844,12.8295898-2.2607422,26.9326172,6.046875,37.7255859c1.1015625,1.4316406,2.3125,2.8012695,3.5986328,4.0703125  c0.1943359,0.1923828,0.4482422,0.2880859,0.7021484,0.2880859c0.2578125,0,0.5166016-0.0991211,0.7119141-0.2973633  c0.3876953-0.3935547,0.3837891-1.0263672-0.0097656-1.4145508c-1.2216797-1.2055664-2.3720703-2.5063477-3.4189453-3.8662109  C12.0234375,62.9609375,9.8759766,49.5625,14.171875,37.3745117C14.3554688,36.8535156,14.0820312,36.2822266,13.5605469,36.0986328  z"></path>
  <path d="M63.0625,52.9731445c0.0927734,0.0273438,0.1875,0.0405273,0.28125,0.0405273  c0.2617188,0,0.5166016-0.1025391,0.7070312-0.2929688c0.2587891-0.2583008,0.3554688-0.637207,0.2529297-0.987793  l-0.6835938-2.3359375c-0.6289062-2.1459961-0.6289062-4.4150391,0-6.5615234L64.3037109,40.5  c0.1025391-0.3505859,0.0058594-0.7294922-0.2529297-0.987793c-0.2587891-0.2587891-0.6376953-0.3574219-0.9882812-0.2524414  l-2.3349609,0.684082c-2.1455078,0.6274414-4.4140625,0.628418-6.5615234,0l-2.3349609-0.684082  c-0.3525391-0.1049805-0.7304688-0.0063477-0.9882812,0.2524414c-0.2587891,0.2583008-0.3554688,0.637207-0.2529297,0.987793  l0.6835938,2.3359375c0.6289062,2.1459961,0.6289062,4.4150391,0,6.5615234l-0.6835938,2.3354492  c-0.1025391,0.3505859-0.0058594,0.7294922,0.2529297,0.987793c0.2578125,0.2587891,0.6357422,0.3549805,0.9882812,0.2524414  l2.3349609-0.684082c2.1455078-0.6279297,4.4140625-0.6279297,6.5615234,0L63.0625,52.9731445z M53.6035156,50.3701172  l-0.5800781,0.1699219l0.1699219-0.5805664c0.7363281-2.5141602,0.7363281-5.171875,0-7.6855469l-0.1699219-0.5810547  l0.5800781,0.1699219c2.5136719,0.7363281,5.1728516,0.7363281,7.6865234,0l0.5800781-0.1699219l-0.1699219,0.5805664  c-0.7363281,2.5141602-0.7363281,5.171875,0,7.6855469l0.1699219,0.5810547l-0.5800781-0.1699219  c-1.2568359-0.3681641-2.5498047-0.5522461-3.8427734-0.5522461S54.8603516,50.0019531,53.6035156,50.3701172z"></path>
  <path d="M35.7099609,56.6328125c-0.1025391,0.3505859-0.0058594,0.7294922,0.2529297,0.987793  s0.6357422,0.3554688,0.9882812,0.2524414l1.7753906-0.5200195c1.5888672-0.465332,3.2675781-0.4643555,4.8544922,0  l1.7753906,0.5200195c0.0927734,0.0273438,0.1875,0.0405273,0.28125,0.0405273c0.2617188,0,0.5166016-0.1025391,0.7070312-0.2929688  c0.2587891-0.2583008,0.3554688-0.637207,0.2529297-0.987793l-0.5195312-1.7758789  c-0.4658203-1.5883789-0.4658203-3.2670898,0-4.8554688l0.5195312-1.7753906  c0.1025391-0.3505859,0.0058594-0.7294922-0.2529297-0.987793c-0.2587891-0.2587891-0.6367188-0.3574219-0.9882812-0.2524414  l-1.7753906,0.5200195c-1.5888672,0.465332-3.2675781,0.4643555-4.8544922,0l-1.7753906-0.5200195  c-0.3525391-0.1049805-0.7294922-0.0063477-0.9882812,0.2524414c-0.2587891,0.2583008-0.3554688,0.637207-0.2529297,0.987793  l0.5195312,1.7758789c0.4658203,1.5878906,0.4658203,3.2666016,0,4.8554688L35.7099609,56.6328125z M38.1494141,49.4399414  l-0.0068359-0.0209961l0.0214844,0.0058594c1.9580078,0.5737305,4.0234375,0.5727539,5.9794922,0l0.0214844-0.0058594  l-0.0068359,0.0205078c-0.5732422,1.9555664-0.5732422,4.0234375,0,5.9794922l0.0068359,0.0209961l-0.0214844-0.0058594  c-1.9580078-0.5737305-4.0234375-0.5727539-5.9794922,0l-0.0214844,0.0058594l0.0068359-0.0205078  C38.7226562,53.4628906,38.7226562,51.3950195,38.1494141,49.4399414z"></path>
  <path d="M58.1533203,57.2036133c-0.390625-0.390625-1.0234375-0.390625-1.4140625,0l-1.8857422,1.8857422l-1.8857422-1.8857422  c-0.390625-0.390625-1.0234375-0.390625-1.4140625,0s-0.390625,1.0234375,0,1.4140625l1.8857422,1.8857422l-1.8857422,1.8857422  c-0.390625,0.390625-0.390625,1.0234375,0,1.4140625c0.1953125,0.1953125,0.4511719,0.2929688,0.7070312,0.2929688  s0.5117188-0.0976562,0.7070312-0.2929688l1.8857422-1.8857422l1.8857422,1.8857422  c0.1953125,0.1953125,0.4511719,0.2929688,0.7070312,0.2929688s0.5117188-0.0976562,0.7070312-0.2929688  c0.390625-0.390625,0.390625-1.0234375,0-1.4140625l-1.8857422-1.8857422l1.8857422-1.8857422  C58.5439453,58.2270508,58.5439453,57.5942383,58.1533203,57.2036133z"></path>
  <path d="M45.6191406,36.1416016c-0.390625-0.390625-1.0234375-0.390625-1.4140625,0l-1.8857422,1.8857422l-1.8857422-1.8857422  c-0.390625-0.390625-1.0234375-0.390625-1.4140625,0s-0.390625,1.0234375,0,1.4140625l1.8857422,1.8857422l-1.8857422,1.8857422  c-0.390625,0.390625-0.390625,1.0234375,0,1.4140625c0.1953125,0.1953125,0.4511719,0.2929688,0.7070312,0.2929688  s0.5117188-0.0976562,0.7070312-0.2929688l1.8857422-1.8857422l1.8857422,1.8857422  c0.1953125,0.1953125,0.4511719,0.2929688,0.7070312,0.2929688s0.5117188-0.0976562,0.7070312-0.2929688  c0.390625-0.390625,0.390625-1.0234375,0-1.4140625l-1.8857422-1.8857422l1.8857422-1.8857422  C46.0097656,37.1650391,46.0097656,36.5322266,45.6191406,36.1416016z"></path>
</svg>
