<?xml version="1.0" encoding="UTF-8"?>
<svg xmlns="http://www.w3.org/2000/svg" xmlns:xlink="http://www.w3.org/1999/xlink" height="100px" width="100px" fill="#f38f19" version="1.1" x="0px" y="0px" viewBox="0 0 100 100" style="enable-background:new 0 0 100 100;" xml:space="preserve">
  <path d="M20.2148438,64.6005859l-2.3007812-0.9345703c-0.5087891-0.2070312-1.0947266,0.0380859-1.3027344,0.5507812  c-0.2080078,0.5117188,0.0390625,1.0947266,0.5507812,1.3027344l2.3007812,0.9345703  c0.1230469,0.0498047,0.25,0.0732422,0.3759766,0.0732422c0.3945312,0,0.7685547-0.2353516,0.9267578-0.6240234  C20.9736328,65.3916016,20.7265625,64.8085938,20.2148438,64.6005859z"></path>
  <path d="M27.2246094,67.4443359l-2.3017578-0.9335938c-0.5087891-0.2050781-1.0957031,0.0380859-1.3027344,0.5507812  c-0.2070312,0.5117188,0.0390625,1.0947266,0.5507812,1.3027344l2.3017578,0.9335938  c0.1230469,0.0498047,0.25,0.0732422,0.3759766,0.0732422c0.3945312,0,0.7685547-0.2353516,0.9267578-0.6240234  C27.9824219,68.2353516,27.7363281,67.6523438,27.2246094,67.4443359z"></path>
  <path d="M30.6298828,69.90625c-0.2070312,0.5117188,0.0390625,1.0947266,0.5507812,1.3027344l2.3017578,0.9335938  c0.1230469,0.0498047,0.25,0.0732422,0.3759766,0.0732422c0.3945312,0,0.7685547-0.2353516,0.9267578-0.6240234  c0.2070312-0.5117188-0.0390625-1.0947266-0.5507812-1.3027344l-2.3017578-0.9335938  C31.4248047,69.1503906,30.8369141,69.3935547,30.6298828,69.90625z"></path>
  <path d="M38.1894531,74.0537109l2.3017578,0.9335938c0.1230469,0.0498047,0.25,0.0732422,0.3759766,0.0732422  c0.3945312,0,0.7695312-0.2353516,0.9267578-0.6240234c0.2070312-0.5117188-0.0390625-1.0947266-0.5507812-1.3027344  l-2.3017578-0.9335938c-0.5078125-0.2050781-1.09375,0.0380859-1.3027344,0.5507812  C37.4316406,73.2626953,37.6777344,73.8457031,38.1894531,74.0537109z"></path>
  <path d="M45.1992188,76.8974609l2.3017578,0.9345703c0.1230469,0.0498047,0.25,0.0732422,0.3759766,0.0732422  c0.3945312,0,0.7685547-0.2353516,0.9267578-0.6240234c0.2080078-0.5117188-0.0390625-1.0947266-0.5507812-1.3027344  l-2.3017578-0.9345703c-0.5087891-0.2070312-1.09375,0.0371094-1.3027344,0.5507812  C44.4404297,76.1064453,44.6875,76.6894531,45.1992188,76.8974609z"></path>
  <path d="M52.2080078,79.7421875l2.3017578,0.9345703c0.1230469,0.0498047,0.25,0.0732422,0.3759766,0.0732422  c0.3945312,0,0.7685547-0.2353516,0.9267578-0.6240234c0.2080078-0.5117188-0.0390625-1.0947266-0.5507812-1.3027344  l-2.3017578-0.9345703c-0.5097656-0.2070312-1.09375,0.0371094-1.3027344,0.5507812  C51.4492188,78.9511719,51.6962891,79.5341797,52.2080078,79.7421875z"></path>
  <path d="M59.2177734,82.5869141l2.3017578,0.9335938c0.1230469,0.0498047,0.25,0.0732422,0.3759766,0.0732422  c0.3945312,0,0.7685547-0.2353516,0.9267578-0.6240234c0.2070312-0.5117188-0.0390625-1.0947266-0.5507812-1.3027344  l-2.3017578-0.9335938c-0.5087891-0.2070312-1.0957031,0.0371094-1.3027344,0.5507812  C58.4599609,81.7958984,58.7060547,82.3789062,59.2177734,82.5869141z"></path>
  <path d="M63.0419922,37.765625h17.6123047c0.5527344,0,1-0.4472656,1-1s-0.4472656-1-1-1H63.0419922c-0.5527344,0-1,0.4472656-1,1  S62.4892578,37.765625,63.0419922,37.765625z"></path>
  <path d="M81.6542969,46.2763672c0-0.5527344-0.4472656-1-1-1H63.0419922c-0.5527344,0-1,0.4472656-1,1s0.4472656,1,1,1h17.6123047  C81.2070312,47.2763672,81.6542969,46.8291016,81.6542969,46.2763672z"></path>
  <path d="M85.765625,19.0517578H66.2578125V11c0-0.5527344-0.4472656-1-1-1H52.9082031c-0.5527344,0-1,0.4472656-1,1v8.0517578  H32.4013672c-2.3349609,0-4.234375,1.8994141-4.234375,4.234375v3.0010376  c-1.5786133,0.1264038-2.9606934,1.1166992-3.5742188,2.6268921l-14.28125,35.1914062  c-0.4248047,1.0478516-0.4169922,2.1992188,0.0234375,3.2412109s1.2607422,1.8496094,2.3085938,2.2753906l49.4472656,20.0664062  c0.5146484,0.2089844,1.0537109,0.3125,1.5927734,0.3125c0.5585938,0,1.1181641-0.1123047,1.6484375-0.3359375  c1.0419922-0.4404297,1.8496094-1.2607422,2.2744141-2.3085938L76.4771729,65.5h9.2884521  C88.1005859,65.5,90,63.6005859,90,61.265625V23.2861328C90,20.9511719,88.1005859,19.0517578,85.765625,19.0517578z M53.9082031,12  h10.3496094v7.0517578H53.9082031V12z M65.7529297,86.6044922c-0.2236328,0.5537109-0.6503906,0.9853516-1.2001953,1.2177734  c-0.5488281,0.234375-1.1572266,0.2373047-1.7099609,0.0126953L13.3955078,67.7685547  c-0.5527344-0.2246094-0.9853516-0.6503906-1.2177734-1.2011719c-0.2324219-0.5498047-0.2373047-1.1572266-0.0126953-1.7099609  l14.28125-35.1914062c0.2961426-0.7312622,0.9604492-1.2390137,1.7207031-1.3607178V61.265625  c0,2.3349609,1.8994141,4.234375,4.234375,4.234375h41.9171143L65.7529297,86.6044922z M88,61.265625  C88,62.4980469,86.9980469,63.5,85.765625,63.5h-9.9736328c-0.0004883,0.000061-0.0008545,0-0.0012207,0H32.4013672  c-1.2324219,0-2.234375-1.0019531-2.234375-2.234375V23.2861328c0-1.2324219,1.0019531-2.234375,2.234375-2.234375H85.765625  c1.2324219,0,2.234375,1.0019531,2.234375,2.234375V61.265625z"></path>
  <path d="M37.5292969,58h-2.4833984c-0.5527344,0-1,0.4472656-1,1s0.4472656,1,1,1h2.4833984c0.5527344,0,1-0.4472656,1-1  S38.0820312,58,37.5292969,58z"></path>
  <path d="M45.09375,58h-2.4833984c-0.5527344,0-1,0.4472656-1,1s0.4472656,1,1,1H45.09375c0.5527344,0,1-0.4472656,1-1  S45.6464844,58,45.09375,58z"></path>
  <path d="M52.6582031,58h-2.4833984c-0.5527344,0-1,0.4472656-1,1s0.4472656,1,1,1h2.4833984c0.5527344,0,1-0.4472656,1-1  S53.2109375,58,52.6582031,58z"></path>
  <path d="M60.2236328,58h-2.484375c-0.5527344,0-1,0.4472656-1,1s0.4472656,1,1,1h2.484375c0.5527344,0,1-0.4472656,1-1  S60.7763672,58,60.2236328,58z"></path>
  <path d="M67.7880859,58h-2.484375c-0.5527344,0-1,0.4472656-1,1s0.4472656,1,1,1h2.484375c0.5527344,0,1-0.4472656,1-1  S68.3408203,58,67.7880859,58z"></path>
  <path d="M75.3525391,58h-2.484375c-0.5527344,0-1,0.4472656-1,1s0.4472656,1,1,1h2.484375c0.5527344,0,1-0.4472656,1-1  S75.9052734,58,75.3525391,58z"></path>
  <path d="M82.9169922,58h-2.484375c-0.5527344,0-1,0.4472656-1,1s0.4472656,1,1,1h2.484375c0.5527344,0,1-0.4472656,1-1  S83.4697266,58,82.9169922,58z"></path>
  <path d="M35.0458984,26.6669922h2.4833984c0.5527344,0,1-0.4472656,1-1s-0.4472656-1-1-1h-2.4833984c-0.5527344,0-1,0.4472656-1,1  S34.4931641,26.6669922,35.0458984,26.6669922z"></path>
  <path d="M42.6103516,26.6669922H45.09375c0.5527344,0,1-0.4472656,1-1s-0.4472656-1-1-1h-2.4833984c-0.5527344,0-1,0.4472656-1,1  S42.0576172,26.6669922,42.6103516,26.6669922z"></path>
  <path d="M50.1748047,26.6669922h2.4833984c0.5527344,0,1-0.4472656,1-1s-0.4472656-1-1-1h-2.4833984c-0.5527344,0-1,0.4472656-1,1  S49.6220703,26.6669922,50.1748047,26.6669922z"></path>
  <path d="M60.2236328,24.6669922h-2.484375c-0.5527344,0-1,0.4472656-1,1s0.4472656,1,1,1h2.484375c0.5527344,0,1-0.4472656,1-1  S60.7763672,24.6669922,60.2236328,24.6669922z"></path>
  <path d="M65.3037109,26.6669922h2.484375c0.5527344,0,1-0.4472656,1-1s-0.4472656-1-1-1h-2.484375c-0.5527344,0-1,0.4472656-1,1  S64.7509766,26.6669922,65.3037109,26.6669922z"></path>
  <path d="M72.8681641,26.6669922h2.484375c0.5527344,0,1-0.4472656,1-1s-0.4472656-1-1-1h-2.484375c-0.5527344,0-1,0.4472656-1,1  S72.3154297,26.6669922,72.8681641,26.6669922z"></path>
  <path d="M82.9169922,24.6669922h-2.484375c-0.5527344,0-1,0.4472656-1,1s0.4472656,1,1,1h2.484375c0.5527344,0,1-0.4472656,1-1  S83.4697266,24.6669922,82.9169922,24.6669922z"></path>
  <path d="M56.7548828,31.9697266c0-0.5527344-0.4472656-1-1-1H37.3076172c-0.5527344,0-1,0.4472656-1,1v20.7275391  c0,0.5527344,0.4472656,1,1,1h18.4472656c0.5527344,0,1-0.4472656,1-1V31.9697266z M54.7548828,51.6972656H38.3076172V32.9697266  h16.4472656V51.6972656z"></path>
</svg>
